HIERARCHY
ROOT Hips
{
	OFFSET 0.000000 103.266502 0.000000
	CHANNELS 6 Xposition Yposition Zposition Xrotation Yrotation Zrotation 
	JOINT Spine
	{
		OFFSET -0.002400 12.777504 0.315300
		CHANNELS 3 Xrotation Yrotation Zrotation
		JOINT Spine1
		{
			OFFSET -0.002067 5.816869 0.032633
			CHANNELS 3 Xrotation Yrotation Zrotation
			JOINT Spine1_split
			{
				OFFSET -0.002067 5.816869 0.032633
				CHANNELS 3 Xrotation Yrotation Zrotation
				JOINT Spine2
				{
					OFFSET -0.002067 5.816869 0.032633
					CHANNELS 3 Xrotation Yrotation Zrotation
					JOINT Neck
					{
						OFFSET -0.003700 21.199493 -0.826900
						CHANNELS 3 Xrotation Yrotation Zrotation
						JOINT Head
						{
							OFFSET 0.000000 20.442200 4.834800
							CHANNELS 3 Xrotation Yrotation Zrotation
							JOINT HeadTop_End
							{
								OFFSET 0.000000 34.668396 4.968400
								CHANNELS 3 Xrotation Yrotation Zrotation
								End Site
								{
									OFFSET 0.000000 0.000000 0.000000
								}
							}
						}
					}
					JOINT LeftShoulder
					{
						OFFSET 3.288150 8.794197 -1.372250
						CHANNELS 3 Xrotation Yrotation Zrotation
						JOINT LeftShoulder_split
						{
							OFFSET 3.288150 8.794197 -1.372250
							CHANNELS 3 Xrotation Yrotation Zrotation
							JOINT LeftArm
							{
								OFFSET 11.953299 -2.279007 -0.146200
								CHANNELS 3 Xrotation Yrotation Zrotation
								JOINT LeftForeArm
								{
									OFFSET 18.448900 0.000000 0.000000
									CHANNELS 3 Xrotation Yrotation Zrotation
									JOINT LeftHand
									{
										OFFSET 29.527798 0.000000 0.000000
										CHANNELS 3 Xrotation Yrotation Zrotation
										JOINT LeftHandThumb1
										{
											OFFSET 10.739754 -2.369614 9.225399
											CHANNELS 3 Xrotation Yrotation Zrotation
											JOINT LeftHandThumb2
											{
												OFFSET 4.926170 -2.844131 2.844125
												CHANNELS 3 Xrotation Yrotation Zrotation
												JOINT LeftHandThumb3
												{
													OFFSET 4.614891 -2.664413 2.664409
													CHANNELS 3 Xrotation Yrotation Zrotation
													JOINT LeftHandThumb4
													{
														OFFSET 4.432465 -2.559082 2.559083
														CHANNELS 3 Xrotation Yrotation Zrotation
														End Site
														{
															OFFSET 0.000000 0.000000 0.000000
														}
													}
												}
											}
										}
										JOINT LeftHandIndex1
										{
											OFFSET 26.467674 0.187653 6.405298
											CHANNELS 3 Xrotation Yrotation Zrotation
											JOINT LeftHandIndex2
											{
												OFFSET 8.792900 0.000000 0.000000
												CHANNELS 3 Xrotation Yrotation Zrotation
												JOINT LeftHandIndex3
												{
													OFFSET 10.075203 0.000000 0.000000
													CHANNELS 3 Xrotation Yrotation Zrotation
													End Site
													{
														OFFSET 0.000000 0.000000 0.000000
													}
												}
											}
										}
										JOINT LeftHandMiddle1
										{
											OFFSET 25.764404 0.000000 0.000000
											CHANNELS 3 Xrotation Yrotation Zrotation
											JOINT LeftHandMiddle2
											{
												OFFSET 9.393974 0.000000 0.000000
												CHANNELS 3 Xrotation Yrotation Zrotation
												JOINT LeftHandMiddle3
												{
													OFFSET 10.771950 0.000000 0.000000
													CHANNELS 3 Xrotation Yrotation Zrotation
													End Site
													{
														OFFSET 0.000000 0.000000 0.000000
													}
												}
											}
										}
										JOINT LeftHandRing1
										{
											OFFSET 24.660927 0.144547 -6.225808
											CHANNELS 3 Xrotation Yrotation Zrotation
											JOINT LeftHandRing2
											{
												OFFSET 9.393799 0.000000 0.000000
												CHANNELS 3 Xrotation Yrotation Zrotation
												JOINT LeftHandRing3
												{
													OFFSET 9.928497 0.000000 0.000000
													CHANNELS 3 Xrotation Yrotation Zrotation
													End Site
													{
														OFFSET 0.000000 0.000000 0.000000
													}
												}
											}
										}
										JOINT LeftHandPinky1
										{
											OFFSET 23.655350 0.125290 -12.815412
											CHANNELS 3 Xrotation Yrotation Zrotation
											JOINT LeftHandPinky2
											{
												OFFSET 8.425102 0.000000 0.000000
												CHANNELS 3 Xrotation Yrotation Zrotation
												JOINT LeftHandPinky3
												{
													OFFSET 8.147003 0.000000 0.000000
													CHANNELS 3 Xrotation Yrotation Zrotation
													End Site
													{
														OFFSET 0.000000 0.000000 0.000000
													}
												}
											}
										}
									}
								}
							}
						}
					}
					JOINT RightShoulder
					{
						OFFSET -3.249400 8.794197 -1.372250
						CHANNELS 3 Xrotation Yrotation Zrotation
						JOINT RightShoulder_split
						{
							OFFSET -3.249400 8.794197 -1.372250
							CHANNELS 3 Xrotation Yrotation Zrotation
							JOINT RightArm
							{
								OFFSET -11.953299 -2.279007 -0.146200
								CHANNELS 3 Xrotation Yrotation Zrotation
								JOINT RightForeArm
								{
									OFFSET -18.448900 0.000000 0.000000
									CHANNELS 3 Xrotation Yrotation Zrotation
									JOINT RightHand
									{
										OFFSET -29.527802 0.000000 0.000000
										CHANNELS 3 Xrotation Yrotation Zrotation
										JOINT RightHandThumb1
										{
											OFFSET -10.739754 -2.369614 9.225399
											CHANNELS 3 Xrotation Yrotation Zrotation
											JOINT RightHandThumb2
											{
												OFFSET -4.926170 -2.844131 2.844125
												CHANNELS 3 Xrotation Yrotation Zrotation
												JOINT RightHandThumb3
												{
													OFFSET -4.614891 -2.664413 2.664409
													CHANNELS 3 Xrotation Yrotation Zrotation
													JOINT RightHandThumb4
													{
														OFFSET -4.432465 -2.559082 2.559083
														CHANNELS 3 Xrotation Yrotation Zrotation
														End Site
														{
															OFFSET 0.000000 0.000000 0.000000
														}
													}
												}
											}
										}
										JOINT RightHandIndex1
										{
											OFFSET -26.467674 0.187653 6.405298
											CHANNELS 3 Xrotation Yrotation Zrotation
											JOINT RightHandIndex2
											{
												OFFSET -8.792900 0.000000 0.000000
												CHANNELS 3 Xrotation Yrotation Zrotation
												JOINT RightHandIndex3
												{
													OFFSET -10.075203 0.000000 0.000000
													CHANNELS 3 Xrotation Yrotation Zrotation
													End Site
													{
														OFFSET 0.000000 0.000000 0.000000
													}
												}
											}
										}
										JOINT RightHandMiddle1
										{
											OFFSET -25.764404 0.000000 0.000000
											CHANNELS 3 Xrotation Yrotation Zrotation
											JOINT RightHandMiddle2
											{
												OFFSET -9.393974 0.000000 0.000000
												CHANNELS 3 Xrotation Yrotation Zrotation
												JOINT RightHandMiddle3
												{
													OFFSET -10.771950 0.000000 0.000000
													CHANNELS 3 Xrotation Yrotation Zrotation
													End Site
													{
														OFFSET 0.000000 0.000000 0.000000
													}
												}
											}
										}
										JOINT RightHandRing1
										{
											OFFSET -24.660927 0.144547 -6.225808
											CHANNELS 3 Xrotation Yrotation Zrotation
											JOINT RightHandRing2
											{
												OFFSET -9.393799 0.000000 0.000000
												CHANNELS 3 Xrotation Yrotation Zrotation
												JOINT RightHandRing3
												{
													OFFSET -9.928497 0.000000 0.000000
													CHANNELS 3 Xrotation Yrotation Zrotation
													End Site
													{
														OFFSET 0.000000 0.000000 0.000000
													}
												}
											}
										}
										JOINT RightHandPinky1
										{
											OFFSET -23.655350 0.125290 -12.815412
											CHANNELS 3 Xrotation Yrotation Zrotation
											JOINT RightHandPinky2
											{
												OFFSET -8.425102 0.000000 0.000000
												CHANNELS 3 Xrotation Yrotation Zrotation
												JOINT RightHandPinky3
												{
													OFFSET -8.147003 0.000000 0.000000
													CHANNELS 3 Xrotation Yrotation Zrotation
													End Site
													{
														OFFSET 0.000000 0.000000 0.000000
													}
												}
											}
										}
									}
								}
							}
						}
					}
				}
			}
		}
	}
	JOINT LeftUpLeg
	{
		OFFSET 11.394100 -6.187798 -0.413800
		CHANNELS 3 Xrotation Yrotation Zrotation
		JOINT LeftLeg
		{
			OFFSET 0.430247 -32.302673 3.732800
			CHANNELS 3 Xrotation Yrotation Zrotation
			JOINT LeftFoot
			{
				OFFSET -0.430247 -48.264931 -6.423300
				CHANNELS 3 Xrotation Yrotation Zrotation
				JOINT LeftToeBase
				{
					OFFSET 4.230900 -16.068199 23.438400
					CHANNELS 3 Xrotation Yrotation Zrotation
					JOINT LeftToe_End
					{
						OFFSET 4.510700 0.695400 19.974600
						CHANNELS 3 Xrotation Yrotation Zrotation
						End Site
						{
							OFFSET 0.000000 0.000000 0.000000
						}
					}
				}
			}
		}
	}
	JOINT RightUpLeg
	{
		OFFSET -11.333700 -6.187798 -0.413800
		CHANNELS 3 Xrotation Yrotation Zrotation
		JOINT RightLeg
		{
			OFFSET -0.430392 -32.302628 3.733000
			CHANNELS 3 Xrotation Yrotation Zrotation
			JOINT RightFoot
			{
				OFFSET 0.430392 -48.264973 -6.423500
				CHANNELS 3 Xrotation Yrotation Zrotation
				JOINT RightToeBase
				{
					OFFSET -4.230900 -16.068199 23.438400
					CHANNELS 3 Xrotation Yrotation Zrotation
					JOINT RightToe_End
					{
						OFFSET -4.510700 0.695400 19.974600
						CHANNELS 3 Xrotation Yrotation Zrotation
						End Site
						{
							OFFSET 0.000000 0.000000 0.000000
						}
					}
				}
			}
		}
	}
}
MOTION
Frames: 6
Frame Time: 0.016667
-0.196971 99.255562 0.604927 2.379587 -11.984483 -0.496042 9.424419 1.999883 0.415454 2.870547 4.029878 0.917350 0.000000 0.000000 0.000000 -9.001475 3.754921 1.727678 -3.884244 2.070162 -6.983152 5.913065 -0.105760 7.514578 0.000000 0.000000 -0.000000 -1.295775 0.077918 -4.827719 0.000000 0.000000 0.000000 -3.652863 -0.069590 -73.007038 -0.000044 -15.717669 -0.000362 2.306653 0.164976 -5.013162 8.265296 -7.734422 18.880829 5.407287 20.572712 -9.835093 1.742538 3.611564 -0.678874 -0.000003 -0.000000 -0.000002 0.273659 -4.246505 -3.910703 0.097438 -0.794741 -17.447648 0.000001 -0.000001 -0.000000 0.248922 -1.909201 -12.464983 -0.126918 -0.878897 -17.469112 0.000001 0.000000 0.000003 0.311232 -1.760773 -17.977500 -0.194368 -1.090511 -20.983236 0.000000 -0.000001 0.000001 0.622129 -0.700682 -24.132891 -0.024669 -0.945243 -17.465313 -0.000001 0.000001 -0.000003 -1.295767 -0.077837 4.827749 0.000000 0.000000 0.000000 3.909177 3.069877 67.997743 -0.000004 18.089263 0.000018 2.313892 -1.592964 -2.170077 8.265278 7.734431 -18.880820 5.407329 -20.572678 9.835198 1.742516 -3.611574 0.678905 -0.000000 -0.000001 -0.000001 0.272410 4.252683 3.917170 0.097387 0.794943 17.452781 -0.000001 0.000000 0.000000 0.250213 1.903643 12.463720 -0.126984 0.878944 17.470167 0.000002 -0.000000 -0.000002 0.310433 1.762613 17.988983 -0.194387 1.090563 20.984694 0.000000 -0.000001 0.000001 0.626363 0.701959 24.132110 -0.024622 0.945188 17.464129 -0.000000 -0.000000 -0.000000 -20.669573 11.577925 14.244129 20.581749 5.203568 1.910412 -0.810892 5.203064 -11.121371 -3.075476 -2.348381 -2.459400 0.000000 -0.000000 -0.000000 -13.919593 -8.168284 -7.330842 21.277812 -5.192571 -1.781275 -8.940906 -0.466287 9.121222 -5.415929 2.348519 2.459441 -0.000000 0.000000 -0.000000 
-0.144344 99.248077 0.623590 2.552279 -12.065315 -0.511227 9.399686 1.917360 0.438786 2.806027 4.034561 0.910478 0.000000 0.000000 0.000000 -9.063598 3.756302 1.734031 -4.162336 1.706293 -7.754409 6.269308 -1.220015 8.671232 0.000000 0.000000 -0.000000 -1.298115 0.155753 -4.850347 0.000000 0.000000 0.000000 -3.189656 0.061113 -72.936742 -0.000015 -16.015506 -0.000180 3.331688 -0.184960 -5.638293 8.273793 -7.737120 18.864327 5.390308 20.552447 -9.830137 1.742514 3.611561 -0.678888 -0.000001 0.000001 0.000001 0.270691 -4.248334 -3.950681 0.097115 -0.795833 -17.472111 0.000002 0.000000 0.000001 0.246386 -1.912594 -12.540565 -0.127540 -0.880736 -17.507098 -0.000001 -0.000001 -0.000002 0.308630 -1.764637 -18.061525 -0.195026 -1.092075 -21.014976 0.000000 0.000000 -0.000000 0.621594 -0.702832 -24.174734 -0.025601 -0.948278 -17.523265 -0.000001 -0.000000 -0.000002 -1.275743 -0.132166 4.800657 0.000000 0.000000 0.000000 4.101210 3.268590 67.974480 0.000928 18.208668 -0.000171 2.345986 -1.166088 -2.036987 8.265279 7.734431 -18.880817 5.407330 -20.572673 9.835197 1.742514 -3.611574 0.678908 0.000000 -0.000000 -0.000001 0.272064 4.256431 3.991468 0.096757 0.796866 17.496448 0.000000 -0.000000 0.000000 0.248835 1.912046 12.629765 -0.128510 0.883668 17.567562 0.000001 -0.000000 0.000001 0.304025 1.771975 18.193775 -0.195448 1.093396 21.041590 -0.000001 -0.000000 -0.000002 0.625182 0.706771 24.225489 -0.026351 0.950796 17.571478 0.000001 0.000000 0.000000 -20.891607 11.526936 14.270412 20.702390 5.267436 1.919823 -0.870567 5.250344 -11.114103 -3.075526 -2.348367 -2.459408 -0.000000 -0.000001 0.000000 -14.086824 -8.159615 -7.311082 21.235903 -5.153053 -1.776227 -8.899944 -0.437496 9.141981 -5.415931 2.348561 2.459445 0.000000 -0.000001 -0.000000 
0.004656 99.230598 0.642169 2.726647 -12.117619 -0.529224 9.396345 1.817073 0.487020 2.763060 4.049149 0.909947 0.000000 0.000000 0.000000 -9.100128 3.757395 1.768803 -4.412551 1.409383 -8.672613 6.710948 -2.881739 10.234385 0.000001 -0.000000 0.000000 -1.303885 0.333881 -4.902907 0.000000 0.000000 0.000000 -3.050629 0.056953 -72.883337 -0.000017 -15.382365 -0.000256 4.405432 -1.213636 -6.241246 8.292460 -7.742941 18.828400 5.350601 20.509292 -9.813132 1.742517 3.611561 -0.678841 -0.000001 -0.000000 -0.000000 0.264209 -4.252227 -4.038113 0.096381 -0.798196 -17.525697 0.000001 -0.000001 0.000000 0.240796 -1.919973 -12.705976 -0.128831 -0.884765 -17.590374 -0.000002 0.000003 0.000000 0.302888 -1.773012 -18.245331 -0.196345 -1.095553 -21.084504 0.000001 0.000000 -0.000001 0.620442 -0.707527 -24.266337 -0.027738 -0.954873 -17.650040 -0.000000 -0.000001 -0.000002 -1.219722 -0.284617 4.724592 0.000000 0.000000 0.000000 4.623790 3.807457 67.911826 0.003493 18.543422 -0.000425 2.401648 -0.735414 -1.898771 8.265279 7.734433 -18.880818 5.407329 -20.572677 9.835200 1.742515 -3.611575 0.678905 -0.000000 0.000001 -0.000000 0.271342 4.264612 4.154778 0.095370 0.801143 17.592643 -0.000000 0.000001 0.000000 0.245834 1.930341 12.992172 -0.131766 0.893970 17.778818 0.000000 -0.000001 -0.000000 0.296097 1.794273 18.638697 -0.197845 1.099614 21.166821 0.000000 -0.000001 -0.000002 0.622695 0.717227 24.429150 -0.030326 0.963089 17.807160 -0.000001 -0.000000 -0.000002 -21.204718 11.473497 14.244206 20.951390 5.319239 1.932614 -0.991439 5.289209 -11.039028 -3.075497 -2.348355 -2.459389 0.000000 0.000001 -0.000000 -14.270405 -8.134690 -7.355606 21.190933 -5.127931 -1.771623 -8.829801 -0.422742 9.229718 -5.415900 2.348536 2.459450 -0.000000 -0.000000 -0.000000 
0.239862 99.204269 0.661128 2.901966 -12.153672 -0.549611 9.414923 1.704641 0.553010 2.745824 4.068234 0.905524 0.000000 0.000000 0.000000 -9.107704 3.755931 1.814801 -4.798414 1.136499 -9.430945 7.361171 -4.778217 11.803093 -0.000000 -0.000000 0.000000 -1.311608 0.529197 -4.962479 0.000000 0.000000 0.000000 -2.922619 0.021940 -72.895665 0.000037 -14.822130 -0.000262 5.163004 -2.007062 -6.577178 8.316520 -7.750525 18.781903 5.299035 20.453580 -9.790639 1.742515 3.611563 -0.678897 -0.000000 -0.000001 -0.000001 0.255902 -4.257257 -4.150998 0.095365 -0.801282 -17.595004 -0.000001 0.000001 0.000000 0.237190 -1.930314 -12.919522 -0.130453 -0.890005 -17.697826 -0.000001 0.000001 0.000001 0.295436 -1.783789 -18.482722 -0.198020 -1.100017 -21.174408 -0.000001 -0.000000 -0.000000 0.618891 -0.713574 -24.384674 -0.030469 -0.963437 -17.813825 -0.000000 0.000000 0.000001 -1.134009 -0.519546 4.607376 0.000000 0.000000 0.000000 5.397547 4.600121 67.820411 0.007694 19.058803 -0.000952 2.479781 -0.301317 -1.755856 8.265279 7.734432 -18.880820 5.407332 -20.572680 9.835197 1.742516 -3.611574 0.678907 0.000000 0.000000 0.000000 0.270312 4.275211 4.365228 0.093646 0.806661 17.716776 0.000000 0.000001 0.000001 0.241741 1.953905 13.457401 -0.135990 0.907071 18.049164 -0.000001 -0.000000 -0.000000 0.286107 1.822933 19.208649 -0.200982 1.107617 21.328437 0.000001 0.000000 0.000001 0.619394 0.730659 24.690581 -0.035457 0.978941 18.111193 -0.000000 -0.000000 0.000000 -21.592004 11.420654 14.171250 21.308279 5.364968 1.948446 -1.164763 5.323665 -10.905017 -3.075535 -2.348377 -2.459406 -0.000000 -0.000000 -0.000000 -14.468820 -8.094537 -7.458946 21.140716 -5.109982 -1.765947 -8.730333 -0.416721 9.376072 -5.415939 2.348515 2.459460 0.000000 0.000000 -0.000000 
0.551293 99.170227 0.680995 3.077524 -12.185799 -0.572445 9.446737 1.581758 0.630610 2.744153 4.087134 0.891779 0.000000 0.000000 0.000000 -9.097147 3.749333 1.859649 -5.267894 0.741759 -9.915451 8.164507 -6.829557 13.232362 -0.000000 -0.000000 0.000000 -1.329870 0.782993 -5.049403 0.000000 0.000000 0.000000 -2.831413 -0.014489 -72.803055 -0.000014 -14.409221 -0.000557 5.235057 -2.154074 -6.567856 8.347157 -7.760207 18.722783 5.233171 20.382714 -9.761537 1.742493 3.611535 -0.678880 -0.000001 0.000000 -0.000001 0.245259 -4.263619 -4.294543 0.094136 -0.805177 -17.683008 -0.000001 -0.000001 -0.000000 0.233297 -1.943632 -13.191029 -0.132613 -0.896608 -17.834454 -0.000000 -0.000001 -0.000000 0.285955 -1.797456 -18.784603 -0.200239 -1.105680 -21.288680 -0.000001 -0.000000 -0.000002 0.616914 -0.721273 -24.535206 -0.033959 -0.974286 -18.022055 -0.000002 -0.000001 -0.000004 -1.025138 -0.821261 4.456891 0.000000 0.000000 0.000000 6.342770 5.560420 67.711108 0.013338 19.719938 -0.001476 2.579411 0.135863 -1.609529 8.265274 7.734429 -18.880817 5.407330 -20.572678 9.835195 1.742516 -3.611574 0.678904 0.000001 0.000000 -0.000002 0.268944 4.288730 4.631964 0.091436 0.813626 17.874460 -0.000000 -0.000000 0.000000 0.236223 1.983685 14.044439 -0.141414 0.923558 18.389036 0.000002 -0.000001 0.000000 0.273343 1.859045 19.925914 -0.204966 1.117815 21.533722 -0.000001 0.000001 0.000000 0.615134 0.747539 25.020392 -0.042101 0.998986 18.496741 -0.000001 -0.000000 -0.000002 -22.039142 11.370962 14.057172 21.757636 5.411141 1.967401 -1.386618 5.358132 -10.720161 -3.075511 -2.348376 -2.459398 -0.000000 0.000000 -0.000000 -14.679065 -8.040844 -7.614245 21.081888 -5.091781 -1.757406 -8.603941 -0.414140 9.571764 -5.415955 2.348507 2.459454 -0.000000 -0.000001 0.000000 
0.929047 99.129005 0.702321 3.252629 -12.226347 -0.598152 9.487134 1.443122 0.713240 2.752582 4.100426 0.858748 0.000000 0.000000 0.000000 -9.074630 3.735211 1.886389 -5.806694 0.102242 -10.024222 9.076116 -8.972320 14.382551 0.000000 -0.000000 0.000001 -1.352838 1.082994 -5.152938 0.000000 0.000000 0.000000 -2.503506 0.039098 -72.652258 -0.000058 -14.559250 -0.001077 5.075690 -1.782092 -6.354241 8.384719 -7.772125 18.650026 5.151914 20.295470 -9.725254 1.742452 3.611550 -0.678912 -0.000000 0.000000 0.000001 0.232182 -4.271412 -4.470923 0.092605 -0.809983 -17.791383 0.000000 -0.000000 0.000001 0.228820 -1.960095 -13.524782 -0.135225 -0.904799 -18.002627 0.000003 0.000002 0.000001 0.278633 -1.815737 -19.155506 -0.202954 -1.112630 -21.429082 -0.000002 -0.000000 -0.000000 0.614424 -0.730710 -24.720208 -0.038305 -0.987617 -18.278035 0.000001 -0.000000 -0.000000 -0.899493 -1.174162 4.280976 0.000000 0.000000 0.000000 7.378347 6.602945 67.593567 0.020348 20.492176 -0.002606 2.699479 0.575725 -1.460086 8.265277 7.734431 -18.880818 5.407332 -20.572677 9.835197 1.742516 -3.611574 0.678905 0.000000 0.000000 -0.000000 0.267213 4.305364 4.957972 0.088617 0.822191 18.067312 0.000000 -0.000001 -0.000000 0.228938 2.020019 14.757945 -0.148092 0.943458 18.800239 0.000000 0.000000 0.000000 0.257344 1.902820 20.795003 -0.209893 1.130238 21.784813 -0.000003 -0.000000 -0.000002 0.609825 0.768046 25.421063 -0.050356 1.023432 18.968135 -0.000001 0.000001 0.000001 -22.530800 11.326802 13.908940 22.281269 5.463962 1.988998 -1.649278 5.396886 -10.493125 -3.075536 -2.348376 -2.459415 0.000000 0.000001 -0.000000 -14.899329 -7.975171 -7.815009 21.011959 -5.065676 -1.744123 -8.449753 -0.409840 9.808164 -5.415890 2.348530 2.459444 0.000000 -0.000001 -0.000000 
